Coordinates
version=1
nRows=16
nColumns=40
inDegrees=yes

Units are S.I. units (second, meters, Newtons, ...)
Angles are in degrees.

endheader
time	pelvis_tilt	pelvis_list	pelvis_rotation	pelvis_tx	pelvis_ty	pelvis_tz	hip_flexion_r	hip_adduction_r	hip_rotation_r	knee_angle_r	knee_angle_r_beta	ankle_angle_r	subtalar_angle_r	mtp_angle_r	hip_flexion_l	hip_adduction_l	hip_rotation_l	knee_angle_l	knee_angle_l_beta	ankle_angle_l	subtalar_angle_l	mtp_angle_l	lumbar_extension	lumbar_bending	lumbar_rotation	arm_flex_r	arm_add_r	arm_rot_r	elbow_flex_r	pro_sup_r	wrist_flex_r	wrist_dev_r	arm_flex_l	arm_add_l	arm_rot_l	elbow_flex_l	pro_sup_l	wrist_flex_l	wrist_dev_l
      1.67000000	     -1.45315313	     -2.25460968	      4.23129399	      0.34083199	      0.89571950	     -0.98550554	      5.46087656	      3.89916774	    -17.01222258	    -20.02925079	     -0.34957637	     11.34192411	     -0.20191801	      1.01430663	     28.60869013	      7.08591741	      3.59716259	    -57.78623512	     -1.00856007	      7.35753008	     18.74629172	     18.82362763	     -3.17688191	      3.06028231	      0.52821247	      4.16176771	    -10.89425078	    -17.89600121	     33.62990002	     89.95437384	      0.00000000	      0.00000000	     -7.87655569	      7.86984656	     16.57715749	     32.00392213	     89.95437384	      0.00000000	      0.00000000
      1.68000000	     -1.08845231	     -1.89567922	      3.99521332	      0.34941392	      0.89613985	     -0.98517694	      4.24538281	      3.51483588	    -17.26219536	    -19.75265704	     -0.34474890	     11.67856065	      1.15802196	     -0.20693537	     28.55646831	      6.74421694	      4.35893696	    -55.59086094	     -0.97024356	      8.23196286	     18.73808048	     21.41476007	     -3.68134353	      2.68140062	      0.86207825	      4.33784773	    -11.08771761	    -17.68289562	     34.67795532	     89.95437384	      0.00000000	      0.00000000	     -7.99138394	      7.64393450	     17.24503269	     30.89081516	     89.95437384	      0.00000000	      0.00000000
      1.69000000	     -1.36005685	     -2.04202528	      3.95647406	      0.35752625	      0.89521844	     -0.98457462	      3.93030381	      3.74578904	    -17.44109751	    -19.71155641	     -0.34403156	     11.84346196	      1.08102949	     -0.25162650	     29.54184093	      6.91575907	      4.84603054	    -53.65670753	     -0.93648621	      8.36528672	     18.74532922	     21.19146522	     -3.43267098	      2.75770513	      0.85269429	      4.67621482	    -11.18968033	    -17.59107264	     35.39718790	     89.95437384	      0.00000000	      0.00000000	     -8.59497400	      7.59138994	     17.26416693	     30.43910537	     89.95437384	      0.00000000	      0.00000000
      1.70000000	     -1.29030656	     -1.84538777	      3.74207564	      0.36592670	      0.89509482	     -0.98431359	      2.97137474	      3.66359127	    -17.10451297	    -19.16358380	     -0.33446763	     12.27650668	      1.37244058	     -0.42251604	     29.76296014	      6.71289776	      5.55964743	    -51.18883037	     -0.89341363	      8.41904645	     18.76411714	     21.20319917	     -3.59705026	      2.53563872	      1.24359549	      4.72881808	    -11.46689280	    -17.25923793	     36.41980042	     89.95437384	      0.00000000	      0.00000000	     -8.53751951	      7.38567761	     17.76194021	     29.10941771	     89.95437384	      0.00000000	      0.00000000
      1.71000000	     -1.23538109	     -1.82767388	      3.61520453	      0.37420020	      0.89478046	     -0.98392763	      2.16777550	      3.70627209	    -17.18266209	    -18.90139385	     -0.32989156	     12.40273076	      1.62037349	     -0.58127560	     30.06467550	      6.71598117	      6.22060108	    -48.71572401	     -0.85024978	      8.20365458	     18.72656332	     21.21695945	     -3.75914168	      2.46824111	      1.42516029	      4.99282238	    -11.63817827	    -17.08393852	     37.17175190	     89.95437384	      0.00000000	      0.00000000	     -8.76123711	      7.25607236	     18.13207476	     28.32667073	     89.95437384	      0.00000000	      0.00000000
      1.72000000	     -1.18316555	     -1.78973364	      3.52937478	      0.38260223	      0.89438592	     -0.98381195	      1.33381300	      3.69341745	    -17.37851914	    -18.60997090	     -0.32480527	     12.64282366	      2.03954318	     -0.82292692	     30.32337636	      6.64977857	      6.84597252	    -46.19378011	     -0.80623356	      7.94410001	     18.61036258	     21.15569724	     -3.90221952	      2.38888227	      1.54509974	      5.25849558	    -11.78630427	    -16.95008034	     37.83118765	     89.95437384	      0.00000000	      0.00000000	     -9.00074081	      7.11471150	     18.44591252	     27.61241541	     89.95437384	      0.00000000	      0.00000000
      1.73000000	     -1.36349542	     -1.83016540	      3.48423633	      0.39063411	      0.89355640	     -0.98383121	      0.84671324	      3.73969219	    -17.49839609	    -18.45839480	     -0.32215976	     12.79745990	      2.37324677	     -0.99430914	     30.84901722	      6.57449037	      7.33143789	    -43.62883772	     -0.76146687	      7.53996097	     18.34965046	     20.91997828	     -3.80343687	      2.39404019	      1.62441284	      5.47808842	    -11.98289093	    -16.72558792	     38.51696085	     89.95437384	      0.00000000	      0.00000000	     -9.19419805	      6.99821468	     18.63340608	     26.88412452	     89.95437384	      0.00000000	      0.00000000
      1.74000000	     -1.67601945	     -2.13187005	      3.49599081	      0.39885938	      0.89225549	     -0.98377039	      0.56665393	      4.05397200	    -17.79137716	    -18.44259891	     -0.32188407	     12.94504901	      2.38866295	     -1.05223172	     31.67327446	      6.85581702	      7.91718006	    -41.38587071	     -0.72231971	      7.51795344	     18.01760076	     20.68791555	     -3.50493153	      2.65793493	      1.54685715	      5.74208673	    -12.10032095	    -16.64116386	     39.11501408	     89.95437384	      0.00000000	      0.00000000	     -9.66081550	      6.90406315	     18.63272288	     26.56822070	     89.95437384	      0.00000000	      0.00000000
      1.75000000	     -1.78166426	     -1.90856078	      3.34210575	      0.40708386	      0.89169736	     -0.98413190	     -0.07944131	      3.77664471	    -17.74036892	    -18.16760056	     -0.31708445	     13.15131294	      3.00407513	     -1.26923066	     31.76857812	      6.42028785	      8.31374899	    -38.41928870	     -0.67054308	      6.75950909	     17.13955822	     20.23257213	     -3.51666889	      2.39076991	      1.83287241	      5.82435276	    -12.36926280	    -16.33483187	     39.75423139	     89.95437384	      0.00000000	      0.00000000	     -9.54920381	      6.76919408	     18.85147578	     25.49185373	     89.95437384	      0.00000000	      0.00000000
      1.76000000	     -1.55745824	     -1.68207738	      3.25673374	      0.41574329	      0.89139848	     -0.98464866	     -0.94261975	      3.19128820	    -19.13675952	    -18.30234748	     -0.31943622	     13.19818539	      5.41997335	     -4.64742268	     31.50403130	      6.15695889	      9.25143092	    -35.64411108	     -0.62210710	      5.76555373	     16.60387226	     15.02077031	     -3.87107351	      2.14051098	      1.89547686	      6.07145232	    -12.51816623	    -16.15276033	     40.32718424	     89.95437384	      0.00000000	      0.00000000	     -9.67823799	      6.64670993	     19.18000473	     24.94323125	     89.95437384	      0.00000000	      0.00000000
      1.77000000	     -1.92409129	     -1.89637254	      3.13353044	      0.42393971	      0.89000400	     -0.98491321	     -1.09541275	      3.37655647	    -19.13318752	    -18.38443279	     -0.32086888	     13.30407406	      5.39257523	     -4.67386282	     32.14123771	      6.22010156	      9.64523372	    -33.35884762	     -0.58222173	      5.72766793	     15.59837534	     14.77745647	     -3.54733566	      2.31904894	      2.02160097	      6.23386548	    -12.69585523	    -16.03420405	     40.77709200	     89.95437384	      0.00000000	      0.00000000	     -9.92981096	      6.52689130	     19.16949393	     24.57304415	     89.95437384	      0.00000000	      0.00000000
      1.78000000	     -2.19842212	     -2.00188131	      2.98843158	      0.43221755	      0.88882211	     -0.98525136	     -1.37166756	      3.42766660	    -19.06873273	    -18.44740785	     -0.32196801	     13.41979344	      5.48204606	     -4.72004542	     32.62641039	      6.22856705	     10.23388195	    -31.18136546	     -0.54421749	      5.66245983	     14.42929549	     14.47778691	     -3.32793639	      2.38636479	      2.15479829	      6.39117485	    -12.85481533	    -15.86846010	     41.14869746	     89.95437384	      0.00000000	      0.00000000	    -10.05514640	      6.41828353	     19.18658847	     24.06790356	     89.95437384	      0.00000000	      0.00000000
      1.79000000	     -2.03359223	     -1.82186541	      2.68805798	      0.44116936	      0.88834734	     -0.98559990	     -2.13933806	      3.11294391	    -19.00071902	    -18.63932902	     -0.32531766	     13.66934890	      6.12135587	     -5.00048015	     32.44372632	      6.28648120	     11.88921420	    -29.15545357	     -0.50885866	      5.43634153	     12.04255431	     13.26093313	     -3.58495398	      2.15532511	      2.39846305	      6.57593613	    -12.91983518	    -15.85076461	     41.51650311	     89.95437384	      0.00000000	      0.00000000	    -10.08517282	      6.31176365	     19.42568280	     23.46143527	     89.95437384	      0.00000000	      0.00000000
      1.80000000	     -2.46436101	     -1.97608894	      2.46669633	      0.44949556	      0.88680951	     -0.98600033	     -2.16991830	      3.17816369	    -18.81737807	    -18.79981688	     -0.32811870	     13.67975568	      6.19356503	     -5.05406225	     33.07300384	      6.32225604	     12.34926272	    -27.39518475	     -0.47813617	      5.41201787	     10.91216594	     12.86081314	     -3.18726668	      2.27123838	      2.55004182	      6.70556243	    -13.07088306	    -15.64076969	     41.79162992	     89.95437384	      0.00000000	      0.00000000	    -10.26101569	      6.21278654	     19.40020564	     23.16372263	     89.95437384	      0.00000000	      0.00000000
      1.81000000	     -2.57572023	     -1.82789458	      2.04213316	      0.45831240	      0.88582896	     -0.98619522	     -2.49209610	      2.86368543	    -18.49879916	    -19.21884218	     -0.33543207	     14.04281950	      6.53562485	     -5.37236029	     33.23851378	      6.49711054	     14.18156801	    -25.95616075	     -0.45302047	      4.87788833	      8.12822920	     11.50811133	     -3.13513013	      2.03581746	      2.89094124	      6.86057842	    -13.08445434	    -15.66507658	     41.96315317	     89.95437384	      0.00000000	      0.00000000	    -10.28529029	      6.13493026	     19.62387601	     22.69065983	     89.95437384	      0.00000000	      0.00000000
      1.82000000	     -2.91237561	     -1.99065359	      1.88224235	      0.46692519	      0.88447510	     -0.98679172	     -2.59643161	      2.93421266	    -18.24397315	    -19.49809995	     -0.34030604	     13.89186690	      6.56494024	     -5.39276355	     33.78486483	      6.49716610	     14.45265144	    -24.82637767	     -0.43330203	      4.71666767	      7.23521125	     11.12354647	     -2.82289726	      2.15292159	      2.94019384	      6.97611938	    -13.16542127	    -15.54135326	     42.08020713	     89.95437384	      0.00000000	      0.00000000	    -10.47856292	      6.05640245	     19.51918561	     22.54931914	     89.95437384	      0.00000000	      0.00000000
